<?xml version="1.0" encoding="UTF-8"?>
<!-- Generator: Adobe Illustrator 19.0.0, SVG Export Plug-In . SVG Version: 6.00 Build 0)  -->
<svg version="1.1" id="Layer_1" xmlns="http://www.w3.org/2000/svg" xmlns:xlink="http://www.w3.org/1999/xlink" x="0px" y="0px" width="310px" height="160px" viewBox="0 0 310 160" style="enable-background:new 0 0 310 160;" xml:space="preserve">
<style type="text/css">
	.st0{fill:#8E9090;}
</style>
<g id="XMLID_62_">
	<path id="XMLID_38_" class="st0" d="M114.9,31.7c-2.9,0-5.6,0.3-8.2,0.7c10.6,2,17.9,8.1,22,16.5c3,5.1,4.2,12.1,4.2,19.1   c0,6-0.8,11.9-2.9,16.5c-3.8,9.9-11.5,17-23.2,19.2c2.5,0.5,5.3,0.7,8.2,0.7c23,0,34.3-15.7,34.3-36.4   C149.3,47.5,137.9,31.7,114.9,31.7z"/>
	<path id="XMLID_37_" class="st0" d="M276.9,31.9c-7.8,0-13.2,1.5-17,3.1V1.9h-16.1v65.6c0,15.8,16.1,16.9,16.1,16.9V42.8   c3.2-1.5,7.2-2.2,12.5-2.2c14.3,0,20.3,11.8,20.3,26.7c0,15.9-6.6,27.6-21.7,27.6c-18.7,0-27.1-7.6-27.1-7.6s6.5,17.1,27.5,17.1   c24,0,37.6-15.5,37.6-37.9C309,45.9,296,31.9,276.9,31.9z"/>
	<path id="XMLID_36_" class="st0" d="M50.2,33.6c-3.3-0.8-8.1-1.4-13.4-1.4C15.6,32.2,1,46.3,1,69.1c0,22.5,14,35.5,38.2,35.5   c21.7,0,27.1-17.1,27.1-17.1S57.8,95,39.2,95c-15,0-21.7-10-21.7-26.9c0-14.8,6.6-27.6,23.1-27.6c3.6,0,6.8,0.4,9.6,1v42.9   c0,0,16.1-1.2,16.1-16.9V1.9H50.2V33.6z"/>
	<path id="XMLID_35_" class="st0" d="M97,68c0-10.3,2.4-20.6,9.8-24.8c-2.3-1.3-4.9-2.1-8.2-2.1c-7.4,0-12.1,3.9-14.7,9.5   c-1.6,3.8-2.6,8.1-3.1,12.7c-0.1,1.5-0.2,3.1-0.2,4.7c0,13.5,4.4,26.3,18,26.3c3.3,0,6-0.7,8.2-2C99.5,88.3,97,78.3,97,68z"/>
	<path id="XMLID_34_" class="st0" d="M196.7,31.7c-2.9,0-5.6,0.3-8.2,0.7c10.6,2,17.9,8.1,22,16.5c3,5.1,4.2,12.1,4.2,19.1   c0,6-0.8,11.9-2.9,16.5c-3.8,9.9-11.5,17-23.2,19.2c2.5,0.5,5.3,0.7,8.2,0.7c23,0,34.3-15.7,34.3-36.4   C231,47.5,219.7,31.7,196.7,31.7z"/>
	<path id="XMLID_33_" class="st0" d="M178.7,68c0-10.3,2.4-20.6,9.8-24.8c-2.2-1.3-4.9-2.1-8.2-2.1c-7.4,0-12.1,3.9-14.7,9.5   c-1.6,3.8-2.6,8.1-3.1,12.7c-0.1,1.5-0.2,3.1-0.2,4.7c0,13.5,4.4,26.3,18,26.3c3.3,0,6-0.7,8.2-2C181.3,88.3,178.7,78.3,178.7,68z"/>
	<path id="XMLID_30_" class="st0" d="M56.2,151.4c-2.9,0-5-0.6-6.2-1.2l0.8-1.7c1,0.5,2.9,1,4.9,1c3.5,0,6-1.8,6-4.7   c0-4.2-5-4.8-7.7-4.7v-1.4c3.8-0.3,6.8-1.9,6.8-4.4c0-2.4-2.4-3.3-4.7-3.3c-1.9,0-3.7,0.5-4.7,0.9l-0.8-1.6c1.2-0.5,3.2-1.2,6-1.2   c3.8,0,7.1,1.7,7.1,4.8c0,3-3.3,4.6-4.8,5v0.1c2.6,0.6,5.9,2.1,5.9,5.8C64.6,148.8,61,151.4,56.2,151.4z"/>
	<path id="XMLID_27_" class="st0" d="M75.5,151.4c-2.9,0-5.3-0.6-6.6-1.2v-20c1.3-0.6,3.5-1.2,6.4-1.2c6.9,0,10.7,4.2,10.7,10.9   C86.1,146.7,82.6,151.4,75.5,151.4z M75.3,130.8c-1.4,0-2.6,0.2-3.5,0.6V149c0.7,0.3,2.2,0.6,3.6,0.6c5.3,0,7.8-3.4,7.8-9.6   C83.1,134.1,80.3,130.8,75.3,130.8z"/>
	<path id="XMLID_25_" class="st0" d="M106.9,131.3V151h-2.8v-19.7h-5.9v-1.7h14.6v1.7H106.9z"/>
	<path id="XMLID_22_" class="st0" d="M115.1,143.6c0.3,4,2.7,6,6.4,6c2.2,0,4-0.5,5-1l0.8,1.7c-1.2,0.6-3.3,1.2-5.9,1.2   c-5.2,0-8.8-2.8-8.8-8.9c0-5.8,3.4-8.8,8-8.8c4.7,0,7.5,2.6,7.5,8.2L115.1,143.6z M120.4,135.4c-3,0-5.5,2.1-5.4,6.8l10.4-1.3   C125.4,137,123.3,135.4,120.4,135.4z"/>
	<path id="XMLID_20_" class="st0" d="M138.5,151.4c-4.3,0-7.7-3.4-7.7-8.8c0-5.5,3.3-8.8,7.8-8.8c2.2,0,3.7,0.6,4.5,1.2l-0.7,1.5   c-0.6-0.4-1.7-0.9-3.2-0.9c-3.7,0-5.6,3-5.6,7c0,4.1,2.2,7.1,5.5,7.1c1.4,0,2.5-0.4,3.2-0.9l0.7,1.6   C142.3,150.9,140.8,151.4,138.5,151.4z"/>
	<path id="XMLID_18_" class="st0" d="M157.5,151v-12.2c0-1.7-1.3-3.4-4.6-3.4c-1.6,0-3.2,0.4-4.2,0.9V151h-2.7v-24.5h2.7v8.3   c1.2-0.5,2.7-1.1,4.7-1.1c5.1,0,6.7,2.6,6.7,5V151H157.5z"/>
	<path id="XMLID_16_" class="st0" d="M175.9,151v-12.2c0-2.5-2.5-3.4-5.1-3.4c-1.4,0-2.8,0.3-3.7,0.6v15h-2.7v-16.1   c1.6-0.7,4.1-1.2,6.7-1.2c4.1,0,7.4,1.3,7.4,5V151H175.9z"/>
	<path id="XMLID_13_" class="st0" d="M189.9,151.4c-5.4,0-7.9-3.8-7.9-8.8c0-5,2.5-8.8,7.9-8.8c5.4,0,7.8,3.9,7.8,8.8   C197.8,147.6,195.4,151.4,189.9,151.4z M189.9,135.4c-4,0-5.2,3.7-5.2,7.2c0,3.5,1.2,7,5.2,7c4,0,5.2-3.6,5.2-7   C195.1,139.2,193.9,135.4,189.9,135.4z"/>
	<path id="XMLID_11_" class="st0" d="M201.5,151v-24.5h2.7V151H201.5z"/>
	<path id="XMLID_8_" class="st0" d="M215.8,151.4c-5.4,0-7.9-3.8-7.9-8.8c0-5,2.5-8.8,7.9-8.8c5.4,0,7.8,3.9,7.8,8.8   C223.6,147.6,221.2,151.4,215.8,151.4z M215.8,135.4c-4,0-5.2,3.7-5.2,7.2c0,3.5,1.2,7,5.2,7c4,0,5.2-3.6,5.2-7   C220.9,139.2,219.7,135.4,215.8,135.4z"/>
	<path id="XMLID_5_" class="st0" d="M233.6,158.1c-2.7,0-5.1-0.6-6.3-1.2l0.8-1.7c1.1,0.5,3.2,1,5.2,1c3.7,0,5.4-1.9,5.4-4.6v-1.2   c-0.9,0.4-2.5,0.7-4.3,0.7c-4.8,0-7.8-3.3-7.8-8.4c0-5.3,3-9.1,8.9-9.1c2.5,0,4.7,0.6,5.8,1.2v16.5   C241.2,155.6,238.3,158.1,233.6,158.1z M238.6,135.9c-0.7-0.3-1.7-0.6-3.2-0.6c-4.1,0-6.2,3-6.2,7.5c0,4.4,2,7,5.9,7   c1.3,0,2.7-0.3,3.5-0.7V135.9z"/>
	<path id="XMLID_3_" class="st0" d="M250.5,157.7h-3l3.3-6.7l-6.7-16.8h2.9l4.4,12.4c0.4,1.1,0.6,2.3,0.6,2.3h0.1   c0,0,0.3-1.2,0.7-2.3l4.5-12.4h2.5L250.5,157.7z"/>
</g>
</svg>