<?xml version="1.0" encoding="utf-8"?>
<!-- Generator: Adobe Illustrator 19.0.0, SVG Export Plug-In . SVG Version: 6.00 Build 0)  -->
<svg version="1.1" id="Layer_1" xmlns="http://www.w3.org/2000/svg" xmlns:xlink="http://www.w3.org/1999/xlink" x="0px" y="0px"
	 width="244px" height="190px" viewBox="128.8 -70.2 244 190" style="enable-background:new 128.8 -70.2 244 190;"
	 xml:space="preserve">
<style type="text/css">
	.st0{fill:#8899AA;}
</style>
<g>
	<path class="st0" d="M204.1-16.7L179-41.9l16.8-9.5c3.3-1.9,2.5-6.9-1.3-7.5l-56-10c-5.7-1.1-10.7,3.9-9.6,9.6l10,56
		c0.7,3.7,5.7,4.6,7.5,1.3l9.5-16.8l25.3,25c6.4,6.4,16.6,6.4,22.9,0l0,0C210.5-0.1,210.5-10.4,204.1-16.7z"/>
	<g>
		<path class="st0" d="M350.5,119.7H151.3c-12.4,0-22.3-10.1-22.3-22.3V36.1c0-7.9,6.4-14.3,14.3-14.3s14.3,6.4,14.3,14.3v55h186.8
			V-41.5H237c-7.9,0-14.3-6.4-14.3-14.3S229.1-70,237-70h113.4c12.4,0,22.3,10.1,22.3,22.3V97.3
			C372.9,109.6,362.8,119.7,350.5,119.7z"/>
	</g>
</g>
</svg>
